<svg xmlns="http://www.w3.org/2000/svg" viewBox="0 0 43 43"><defs><style>.cls-1{fill:#fff;stroke:#000;stroke-width:3px;}</style></defs><g id="Livello_2" data-name="Livello 2"><g id="Livello_2-2" data-name="Livello 2"><circle class="cls-1" cx="21.5" cy="21.5" r="20"/><path d="M17.65,28.24q0,.87-1.08.87c-.7,0-1.06-.29-1.06-.87V15.48c0-.57.36-.86,1.06-.86s1.08.29,1.08.86Zm6.79-4.53a.57.57,0,0,1-.48-.24,1.17,1.17,0,0,1-.16-.66c0-.61.25-.92.75-.92h1.91a1.09,1.09,0,0,0,.94-.38,1.34,1.34,0,0,0,.28-.83V17.73a1.36,1.36,0,0,0-.28-.83,1.09,1.09,0,0,0-.94-.37H22.68V28.28c0,.58-.36.86-1.08.86s-1-.28-1-.86V15.79a1,1,0,0,1,.32-.87,1.43,1.43,0,0,1,.79-.21h5.26a2.42,2.42,0,0,1,.95.2,5.24,5.24,0,0,1,1,.5h0a2.29,2.29,0,0,1,.72.9,3.08,3.08,0,0,1,.25,1.26v3.26a2.56,2.56,0,0,1-1,2.18,4.3,4.3,0,0,1-1,.52,2.71,2.71,0,0,1-.95.18Z"/></g></g></svg>